<?xml version="1.0" encoding="iso-8859-1"?>
<!-- Uploaded to: SVG Repo, www.svgrepo.com, Generator: SVG Repo Mixer Tools -->
<svg height="800px" width="800px" version="1.1" id="Layer_1" xmlns="http://www.w3.org/2000/svg" xmlns:xlink="http://www.w3.org/1999/xlink" 
	 viewBox="0 0 512 512" xml:space="preserve">
<path style="fill:pink;" d="M497.914,193.995c0-46.262-29.749-86.153-72.026-100.349C423.337,41.578,380.174,0,327.483,0
	C299.765,0,274.178,11.494,256,30.663h-0.002C237.821,11.495,212.233,0,184.517,0c-52.693,0-95.856,41.574-98.406,93.645
	c-42.273,14.199-72.024,54.09-72.024,100.35c0,23.884,7.952,46.645,22.328,65.06c-11.54,17.213-17.725,37.426-17.725,58.706
	c0,44.49,27.311,83.143,67.345,98.662c1.564,52.97,45.14,95.576,98.482,95.576c27.715,0,53.302-11.494,71.481-30.658l0.002-0.003
	C274.178,500.506,299.765,512,327.483,512c53.341,0,96.919-42.606,98.481-95.578c40.035-15.52,67.347-54.173,67.347-98.662
	c0-21.282-6.183-41.494-17.725-58.706C489.962,240.64,497.914,217.878,497.914,193.995z"/>
<path style="fill:#f2aeb1;" d="M497.914,193.995c0-46.262-29.749-86.153-72.026-100.349C423.337,41.578,380.174,0,327.483,0
	C299.765,0,274.178,11.494,256,30.663h-0.002v450.679l0.002-0.003C274.178,500.506,299.765,512,327.483,512
	c53.341,0,96.919-42.606,98.481-95.578c40.035-15.52,67.347-54.173,67.347-98.662c0-21.282-6.183-41.494-17.725-58.706
	C489.962,240.64,497.914,217.878,497.914,193.995z"/>
<path style="fill:pink;" d="M460.42,241.057c-19.766-18.818-45.691-29.181-72.991-29.181h-38.336
	c-12.854,0-23.273,10.42-23.273,23.273c0,12.851,10.418,23.273,23.273,23.273h38.336c15.299,0,29.825,5.804,40.9,16.347
	c4.506,4.29,10.279,6.417,16.043,6.417c6.149,0,12.288-2.422,16.86-7.227C470.094,264.648,469.731,249.918,460.42,241.057z"/>
<g>
	<path style="fill:#f2aeb1;" d="M162.911,211.876h-38.336c-27.294,0-53.212,10.358-72.98,29.165
		c-9.312,8.861-9.678,23.591-0.819,32.903c4.575,4.81,10.713,7.23,16.865,7.23c5.762,0,11.536-2.127,16.038-6.412
		c11.076-10.536,25.6-16.341,40.896-16.341h38.336c12.851,0,23.273-10.422,23.273-23.273
		C186.183,222.296,175.762,211.876,162.911,211.876z"/>
	<path style="fill:#f2aeb1;" d="M114.849,343.808c-13.985,13.987-23.347,31.609-27.075,50.969
		c-2.43,12.622,5.832,24.824,18.454,27.254c1.486,0.285,2.966,0.424,4.426,0.424c10.934,0,20.685-7.742,22.827-18.877
		c1.964-10.189,6.9-19.476,14.282-26.857c9.087-9.089,9.087-23.824,0-32.914C138.674,334.719,123.938,334.719,114.849,343.808z"/>
</g>
<path style="fill:pink;" d="M397.151,343.806c-9.089-9.087-23.824-9.086-32.912,0.003c-9.087,9.089-9.087,23.823,0.002,32.914
	c7.381,7.377,12.316,16.665,14.28,26.854c2.144,11.137,11.894,18.876,22.827,18.876c1.457,0,2.94-0.138,4.426-0.424
	c12.622-2.43,20.883-14.632,18.452-27.251C420.495,375.412,411.134,357.79,397.151,343.806z"/>
</svg>