<svg xmlns="http://www.w3.org/2000/svg" x="0px" y="0px" width="100" height="100" viewBox="0 0 48 48">
<path fill="#64717c" d="M29,14h-7c-0.6,0-1-0.4-1-1s0.4-1,1-1h6V6c0-0.6,0.4-1,1-1s1,0.4,1,1v7C30,13.6,29.6,14,29,14z"></path><path fill="#64717c" d="M32,27c-0.6,0-1-0.4-1-1V15c0-0.6-0.4-1-1-1h-2c-0.6,0-1-0.4-1-1s0.4-1,1-1h2c1.7,0,3,1.3,3,3v11 C33,26.6,32.6,27,32,27z"></path><path fill="#64717c" d="M27,24h-4c-0.6,0-1-0.4-1-1s0.4-1,1-1h3v-4c0-0.6,0.4-1,1-1s1,0.4,1,1v5C28,23.6,27.6,24,27,24z"></path><path fill="#64717c" d="M28,41c-0.6,0-1-0.4-1-1v-3c0-0.6-0.4-1-1-1h-5c-0.6,0-1-0.4-1-1s0.4-1,1-1h5c1.7,0,3,1.3,3,3v3 C29,40.6,28.6,41,28,41z"></path><path fill="#64717c" d="M35,32h-6c-1.7,0-3-1.3-3-3v-6c0-0.6,0.4-1,1-1s1,0.4,1,1v6c0,0.6,0.4,1,1,1h6c0.6,0,1-0.4,1-1v-5 c0-1.7,1.3-3,3-3h1c0.6,0,1,0.4,1,1s-0.4,1-1,1h-1c-0.6,0-1,0.4-1,1v5C38,30.7,36.7,32,35,32z"></path><linearGradient id="SVGID_1__zzhjW2dkRmjW_gr1" x1="26.586" x2="29.414" y1="833.476" y2="836.304" gradientTransform="translate(0 -793.89)" gradientUnits="userSpaceOnUse"><stop offset="0" stop-color="#4fe5ff"></stop><stop offset="1" stop-color="#2eb7ed"></stop></linearGradient><path fill="url(#SVGID_1__zzhjW2dkRmjW_gr1)" d="M28,39c1.1,0,2,0.9,2,2s-0.9,2-2,2s-2-0.9-2-2S26.9,39,28,39"></path><linearGradient id="SVGID_00000073682160994553244610000011341805932821310862__zzhjW2dkRmjW_gr2" x1="39.586" x2="42.414" y1="814.476" y2="817.304" gradientTransform="translate(0 -793.89)" gradientUnits="userSpaceOnUse"><stop offset="0" stop-color="#4fe5ff"></stop><stop offset="1" stop-color="#2eb7ed"></stop></linearGradient><path fill="url(#SVGID_00000073682160994553244610000011341805932821310862__zzhjW2dkRmjW_gr2)" d="M41,24c1.1,0,2-0.9,2-2s-0.9-2-2-2	s-2,0.9-2,2S39.9,24,41,24"></path><linearGradient id="SVGID_00000069390412225280080710000015587286611400241593__zzhjW2dkRmjW_gr3" x1="30.586" x2="33.414" y1="818.476" y2="821.304" gradientTransform="translate(0 -793.89)" gradientUnits="userSpaceOnUse"><stop offset="0" stop-color="#4fe5ff"></stop><stop offset="1" stop-color="#2eb7ed"></stop></linearGradient><path fill="url(#SVGID_00000069390412225280080710000015587286611400241593__zzhjW2dkRmjW_gr3)" d="M32,28c1.1,0,2-0.9,2-2s-0.9-2-2-2	s-2,0.9-2,2S30.9,28,32,28"></path><linearGradient id="SVGID_00000013157976301495582810000015337961798572537749__zzhjW2dkRmjW_gr4" x1="25.586" x2="28.414" y1="810.476" y2="813.304" gradientTransform="translate(0 -793.89)" gradientUnits="userSpaceOnUse"><stop offset="0" stop-color="#4fe5ff"></stop><stop offset="1" stop-color="#2eb7ed"></stop></linearGradient><path fill="url(#SVGID_00000013157976301495582810000015337961798572537749__zzhjW2dkRmjW_gr4)" d="M27,20c1.1,0,2-0.9,2-2s-0.9-2-2-2	s-2,0.9-2,2S25.9,20,27,20"></path><linearGradient id="SVGID_00000098194852027021477250000014069269687999210906__zzhjW2dkRmjW_gr5" x1="27.586" x2="30.414" y1="799.476" y2="802.304" gradientTransform="translate(0 -793.89)" gradientUnits="userSpaceOnUse"><stop offset="0" stop-color="#4fe5ff"></stop><stop offset="1" stop-color="#2eb7ed"></stop></linearGradient><path fill="url(#SVGID_00000098194852027021477250000014069269687999210906__zzhjW2dkRmjW_gr5)" d="M29,9c1.1,0,2-0.9,2-2s-0.9-2-2-2	s-2,0.9-2,2S27.9,9,29,9"></path><path fill="#64717c" d="M37,37h-3c-1.7,0-3-1.3-3-3v-3c0-0.6,0.4-1,1-1c0.6,0,1,0.4,1,1v3c0,0.6,0.4,1,1,1h3c0.6,0,1,0.4,1,1 S37.6,37,37,37z"></path><linearGradient id="SVGID_00000013905335926192178260000007023861807884571025__zzhjW2dkRmjW_gr6" x1="35.586" x2="38.414" y1="828.476" y2="831.304" gradientTransform="translate(0 -793.89)" gradientUnits="userSpaceOnUse"><stop offset="0" stop-color="#4fe5ff"></stop><stop offset="1" stop-color="#2eb7ed"></stop></linearGradient><path fill="url(#SVGID_00000013905335926192178260000007023861807884571025__zzhjW2dkRmjW_gr6)" d="M37,34c1.1,0,2,0.9,2,2s-0.9,2-2,2	s-2-0.9-2-2S35.9,34,37,34"></path><path fill="#64717c" d="M37,18h-5c-0.6,0-1-0.4-1-1s0.4-1,1-1h5c0.6,0,1,0.4,1,1S37.6,18,37,18z"></path><linearGradient id="SVGID_00000034049216125680936410000003521178217694980761__zzhjW2dkRmjW_gr7" x1="35.586" x2="38.414" y1="809.476" y2="812.304" gradientTransform="translate(0 -793.89)" gradientUnits="userSpaceOnUse"><stop offset="0" stop-color="#4fe5ff"></stop><stop offset="1" stop-color="#2eb7ed"></stop></linearGradient><path fill="url(#SVGID_00000034049216125680936410000003521178217694980761__zzhjW2dkRmjW_gr7)" d="M37,15c1.1,0,2,0.9,2,2s-0.9,2-2,2	s-2-0.9-2-2S35.9,15,37,15"></path><linearGradient id="SVGID_00000101818101364091942230000015509659300722131863__zzhjW2dkRmjW_gr8" x1="11.05" x2="23.315" y1="594.646" y2="633.824" gradientTransform="translate(0 -587.89)" gradientUnits="userSpaceOnUse"><stop offset="0" stop-color="#ffa1a6"></stop><stop offset="1" stop-color="#f24472"></stop></linearGradient><path fill="url(#SVGID_00000101818101364091942230000015509659300722131863__zzhjW2dkRmjW_gr8)" d="M24,9.8C24,7.1,21.9,5,19.2,5	c-2.4,0-4.4,1.8-4.7,4.1C10.8,9.8,8,13.1,8,17c0,0.3,0,0.6,0,0.8c-1.9,1.8-3,4.4-3,7.2c0,2.8,1.2,5.4,3.1,7.2C8,32.5,8,32.7,8,33	c0,3.7,2.8,6.7,6.4,7c0.8,1.8,2.5,3,4.6,3c2.8,0,5-2.2,5-5C24,37.6,24,10.4,24,9.8z"></path><linearGradient id="SVGID_00000106857811471138649900000005187513996029208973__zzhjW2dkRmjW_gr9" x1="14.806" x2="29.064" y1="594.921" y2="630.637" gradientTransform="translate(0 -587.89)" gradientUnits="userSpaceOnUse"><stop offset="0" stop-color="#ff6181"></stop><stop offset="1" stop-color="#c41f40"></stop></linearGradient><path fill="url(#SVGID_00000106857811471138649900000005187513996029208973__zzhjW2dkRmjW_gr9)" d="M17.1,19L17.1,19c0.5,0,0.9-0.3,1-0.8	c0.3-1.1,1.2-1.9,2.1-2.1c0.5-0.1,0.8-0.5,0.8-1v-0.3c0-0.5-0.3-0.9-0.8-1c-1.1-0.3-1.9-1.2-2.1-2.1c-0.1-0.5-0.5-0.8-1-0.8h0	c-0.7,0-1.1,0.6-1,1.3c0.3,1.1,0.9,2.1,1.8,2.7c-0.9,0.7-1.6,1.6-1.8,2.7C16,18.4,16.5,19,17.1,19z"></path><linearGradient id="SVGID_00000096751900167331311530000005585261968165202306__zzhjW2dkRmjW_gr10" x1="8.959" x2="23.711" y1="597.625" y2="634.577" gradientTransform="translate(0 -587.89)" gradientUnits="userSpaceOnUse"><stop offset="0" stop-color="#ff6181"></stop><stop offset="1" stop-color="#c41f40"></stop></linearGradient><path fill="url(#SVGID_00000096751900167331311530000005585261968165202306__zzhjW2dkRmjW_gr10)" d="M18.9,24L18.9,24c-0.5,0-0.9,0.4-1,0.9	c-0.3,1.5-1.3,2.1-2.2,2.1c-1.1-0.5-2.3-0.8-3.6-0.9c-0.6,0-1.1,0.4-1.1,1l0,0c0,0.5,0.4,1,0.9,1c2.8,0.2,4.7,1.4,5.8,3.5	c0.2,0.4,0.8,0.6,1.2,0.4l0,0c0.6-0.2,0.8-0.9,0.5-1.4c-0.5-0.9-1-1.6-1.7-2.2c1-0.6,1.9-1.7,2.1-3.3C20,24.5,19.5,24,18.9,24z"></path>
</svg>