<svg xmlns="http://www.w3.org/2000/svg" x="0px" y="0px" width="100" height="100" viewBox="0 0 64 64" fill="#F7FBFE">
<path d="M20.97 18.188C20.97 24.381 32 31.296 32 31.296s11.03-6.916 11.03-13.109c0-3.421-2.694-6.193-6.017-6.193-3.05 0-5.013 3.649-5.013 3.649s-1.947-3.649-5.013-3.649C23.664 11.995 20.97 14.767 20.97 18.188zM38.999 45c0-4.903.744-7.265 2.276-11.518.92-2.555 1.249-3.831 2.094-5.937.593-1.478 1.214-2.711 3.351-2.711 1.041 0 3.597 1.266 2.29 5.355-.732 2.292-1.355 4.428-1.355 4.428l.67.223 4.029-5.507-.094-7.415c-4.662-7.074-5.928-8.8-5.928-10.834 0-1.519 1.231-2.75 2.75-2.75 1.032 0 1.647.54 2.402 1.41.755.869 6.89 9.441 6.89 9.441s1.652 6.522 2.031 7.654c.11.33.593 1.378.593 2.579 0 .422-.666 2.354-1.029 3.152-.363.798-5.182 12.824-5.182 12.824-.378.922-.365 1.956.031 2.869L57.332 56H41.781C41.781 56 38.999 47.863 38.999 45zM24.999 45c0-4.903-.744-7.265-2.276-11.518-.92-2.555-1.249-3.831-2.094-5.937-.593-1.478-1.214-2.711-3.351-2.711-1.041 0-3.597 1.266-2.29 5.355.732 2.292 1.355 4.428 1.355 4.428l-.67.223-4.029-5.507.094-7.415c4.662-7.074 5.928-8.8 5.928-10.834 0-1.519-1.231-2.75-2.75-2.75-1.032 0-1.647.54-2.402 1.41-.755.869-6.89 9.441-6.89 9.441s-1.652 6.522-2.031 7.654C3.483 27.169 3 28.217 3 29.418c0 .422.666 2.354 1.029 3.152s5.182 12.824 5.182 12.824c.378.922.365 1.956-.031 2.869L6.666 56h15.551C22.217 56 24.999 47.863 24.999 45z"></path>
</svg>