<svg xmlns="http://www.w3.org/2000/svg" x="0px" y="0px" width="100" height="100" viewBox="0 0 48 48">
<defs><linearGradient id="v3yYEgH_8mGFDqfmpnPYfa_sz8cPVwzLrMP_gr1" x1="24.175" x2="24.175" y1="10.204" y2="39" gradientUnits="userSpaceOnUse"><stop offset=".278" stop-color="#65e04d"></stop><stop offset=".458" stop-color="#5cd740"></stop><stop offset=".79" stop-color="#44c11d"></stop><stop offset="1" stop-color="#33b004"></stop></linearGradient></defs><path fill="url(#v3yYEgH_8mGFDqfmpnPYfa_sz8cPVwzLrMP_gr1)" d="M21,39a3.952,3.952,0,0,1-2.535-.906L4.838,26.376a1.509,1.509,0,0,1-.183-2.087l3.164-3.873a1.5,1.5,0,0,1,2.145-.185L20.6,29.465,37.7,10.694a1.5,1.5,0,0,1,2.109-.11l3.728,3.346a1.5,1.5,0,0,1,.11,2.124L23.98,37.673A4.038,4.038,0,0,1,21,39Z" data-name="check cross mark"></path>
</svg>