<svg xmlns="http://www.w3.org/2000/svg" x="0px" y="0px" width="100" height="100" viewBox="0 0 256 256">
<path fill="#ffd2c0" d="M91.781,96.291V84.972c-6.443,0-11.667,5.223-11.667,11.667c0,6.443,5.223,11.667,11.667,11.667 c0.679,0,1.341-0.07,1.988-0.181C92.487,104.414,91.781,100.436,91.781,96.291z"></path><path fill="#ffd2c0" d="M164.219,84.972v11.319c0,4.145-0.706,8.124-1.988,11.833c0.647,0.111,1.309,0.181,1.988,0.181 c6.443,0,11.667-5.223,11.667-11.667C175.886,90.195,170.662,84.972,164.219,84.972z"></path><path fill="#fcc4ae" d="M171.408,87.45c1.552,1.981,2.478,4.477,2.478,7.189c0,6.245-4.907,11.343-11.075,11.652 c-0.178,0.618-0.371,1.229-0.58,1.833c0.647,0.111,1.309,0.182,1.988,0.182c6.443,0,11.667-5.223,11.667-11.667 C175.886,92.907,174.134,89.585,171.408,87.45z"></path><path fill="#f2ad97" d="M91.781,96.291v-6.356c-3.703,0-6.704,3.002-6.704,6.704s3.002,6.704,6.704,6.704 c0.236,0,0.458-0.046,0.688-0.069C92.027,101.012,91.781,98.681,91.781,96.291z"></path><path fill="#f2ad97" d="M164.225,96.291v-6.356c3.702,0,6.704,3.002,6.704,6.704s-3.002,6.704-6.704,6.704 c-0.236,0-0.458-0.046-0.688-0.069C163.979,101.012,164.225,98.681,164.225,96.291z"></path><path fill="#478cf7" d="M199.31,192.69v29.7c0,5.53-4.48,10-10,10H66.69c-5.52,0-10-4.47-10-10v-29.7c0-22.09,17.91-40,40-40 h62.62C181.4,152.69,199.31,170.6,199.31,192.69z"></path><path fill="#5e9cf7" d="M62.689,212.029c-1.1,0-2-0.899-2-2c0-1.1,0.9-2,2-2c1.101,0,2,0.9,2,2 C64.689,211.13,63.79,212.029,62.689,212.029z M62.689,204.029c-1.1,0-2-0.899-2-2v-9.34c0-19.85,16.15-36,36-36 c1.101,0,2,0.9,2,2c0,1.101-0.899,2-2,2c-8.529,0-16.569,3.33-22.62,9.38c-6.05,6.061-9.38,14.091-9.38,22.62v9.33v0.01 C64.689,203.13,63.79,204.029,62.689,204.029z"></path><path fill="#377de2" d="M100.956,204.245H83.899c-2.09,0-3.785-1.695-3.785-3.785v0c0-2.09,1.695-3.785,3.785-3.785h17.057 c2.09,0,3.785,1.695,3.785,3.785v0C104.741,202.551,103.047,204.245,100.956,204.245z"></path><path fill="#377de2" d="M166.474,153.334c7.893,7.307,12.834,17.756,12.834,29.359v29.7c0,5.523-4.477,10-10,10H56.692 c0,5.523,4.477,10,10,10h122.616c5.523,0,10-4.477,10-10v-29.7C199.308,173.048,185.146,156.711,166.474,153.334z"></path><g><path fill="#e6e7e8" d="M153.85,152.69l-14.321-6.46h-23.057l-14.312,6.46l17.07,46.332c3.004,8.155,14.538,8.156,17.544,0.001 L153.85,152.69z"></path></g><g><path fill="#fcc4ae" d="M116.508,126.744l0,28.443c0,2.2,0.632,4.355,1.82,6.207l0,0c4.522,7.048,14.823,7.048,19.345,0l0,0 c1.188-1.852,1.82-4.006,1.82-6.207v-28.442H116.508z"></path></g><g><path fill="#f2ad97" d="M116.508,135.638c3.612,1.208,7.473,1.872,11.492,1.872h0c4.019,0,7.881-0.664,11.493-1.873v-8.893 h-22.985L116.508,135.638z"></path><path fill="#ffd2c0" d="M128,132.51L128,132.51c-20.004,0-36.219-16.216-36.219-36.219V77.489 c0-20.003,16.216-36.219,36.219-36.219h0c20.003,0,36.219,16.216,36.219,36.219v18.801 C164.219,116.294,148.003,132.51,128,132.51z"></path><path fill="#fcc4ae" d="M150.988,49.501c5.142,6.254,8.231,14.26,8.231,22.988v18.801c0,20.003-16.216,36.219-36.219,36.219h0 c-8.728,0-16.735-3.089-22.988-8.231c6.643,8.078,16.713,13.231,27.988,13.231h0c20.003,0,36.219-16.216,36.219-36.219V77.489 C164.219,66.214,159.066,56.144,150.988,49.501z"></path><path fill="#f2ad97" d="M91.78,77.489v9.666c14.114-9.422,23.143-25.497,23.087-43.122c0-0.103-0.001-0.205-0.002-0.308 C101.355,48.985,91.78,62.119,91.78,77.489z"></path><path fill="#7c3108" d="M114.867,34.034c0.061,19.232-10.695,36.619-27.07,45.529c-3.464,1.885-7.717-0.828-7.37-4.757 c1.177-13.345,7.108-25.559,16.431-34.162c5.037-4.665,11.062-8.262,17.86-10.424 C114.814,31.48,114.867,32.748,114.867,34.034z"></path><path fill="#8c3f0a" d="M172.631,76.39c-30.362,15.674-68.533-2.216-75.774-35.746c5.009-4.639,10.994-8.222,17.746-10.387 c28.227-9.163,56.357,12.318,60.643,41.029C175.555,73.361,174.495,75.428,172.631,76.39z"></path><path fill="#7c3108" d="M175.245,71.286c-4.286-28.71-32.416-50.192-60.643-41.029c-6.752,2.165-12.737,5.748-17.746,10.387 c0.186,0.863,0.394,1.716,0.62,2.558c2.265-1.161,4.643-2.149,7.125-2.945c27.671-8.983,55.249,11.484,60.362,39.341 c2.594-0.847,5.157-1.913,7.666-3.208C174.495,75.428,175.555,73.361,175.245,71.286z"></path><path fill="#6d2e03" d="M175.245,71.286c-4.286-28.71-32.416-50.192-60.643-41.029c-6.752,2.165-12.737,5.748-17.746,10.387 c0.06,0.276,0.121,0.551,0.185,0.825c3.795-2.642,8.003-4.75,12.561-6.212c28.227-9.163,56.357,12.318,60.643,41.029 c0.063,0.42,0.068,0.839,0.024,1.249c0.792-0.36,1.58-0.741,2.362-1.145C174.495,75.428,175.555,73.361,175.245,71.286z"></path><path fill="#995222" d="M148.979,78.13c-7.46,0-14.67-1.63-21.41-4.851c-6.489-3.09-12.329-7.64-16.88-13.13 c-0.699-0.85-0.58-2.12,0.261-2.819c0.819-0.681,2.14-0.551,2.819,0.27c8.71,10.51,21.54,16.53,35.2,16.53 c2.59,0,5.18-0.22,7.68-0.67c1.07-0.19,2.131,0.55,2.32,1.62c0.19,1.09-0.53,2.13-1.62,2.319 C154.63,77.89,151.81,78.13,148.979,78.13z M107.68,54.3c-0.71,0-1.37-0.38-1.729-0.99c0,0,0-0.01-0.011-0.01 c-0.54-0.96-0.21-2.18,0.75-2.73c0.931-0.54,2.2-0.18,2.73,0.74c0.54,0.96,0.21,2.181-0.75,2.73 C108.37,54.21,108.03,54.3,107.68,54.3z"></path><g><circle cx="110.979" cy="91.546" r="4.388" fill="#995222"></circle><circle cx="145.021" cy="91.546" r="4.388" fill="#995222"></circle></g></g><g><path fill="#e59076" d="M134.44,109.715c0.996,0,1.751,0.93,1.521,1.9c-0.857,3.603-4.096,6.283-7.961,6.283 c-3.865,0-7.104-2.68-7.961-6.283c-0.23-0.969,0.524-1.9,1.521-1.9H134.44z"></path></g><g><path fill="#f79219" d="M186.883,196.477l-25.078,8.643c-2.85,0.982-5.581-1.748-4.598-4.598l8.643-25.078l18.476,2.558 L186.883,196.477z"></path><circle cx="201.357" cy="160.969" r="43.277" fill="#ffa91a"></circle><path fill="#f79219" d="M227.102,126.18c5.333,7.195,8.488,16.101,8.488,25.745c0,23.901-19.375,43.277-43.277,43.277 c-9.644,0-18.55-3.155-25.745-8.488c7.885,10.637,20.531,17.531,34.788,17.531c23.901,0,43.277-19.375,43.277-43.277 C244.633,146.712,237.739,134.065,227.102,126.18z"></path></g><g><path fill="#fff" d="M102.16,152.69l10.793,29.276c0.439,1.191,1.964,1.525,2.862,0.628L128,166.679l-11.529-14.239l0-6.21 L102.16,152.69z"></path><path fill="#fff" d="M153.85,152.69l-10.802,29.276c-0.439,1.191-1.964,1.525-2.862,0.628L128,166.679l11.529-14.239l0-6.21 L153.85,152.69z"></path></g><g><path fill="#e63950" d="M209.644,145.811c-4.218,0-7.965,2.012-10.336,5.128c-2.371-3.116-6.118-5.128-10.336-5.128 c-7.169,0-12.98,5.811-12.98,12.98c0,11.056,17.559,27.18,22.202,31.25c0.639,0.56,1.59,0.56,2.229,0 c4.642-4.07,22.202-20.194,22.202-31.25C222.624,151.622,216.813,145.811,209.644,145.811z"></path><path fill="#d10028" d="M216.583,147.819c1.272,2.007,2.009,4.387,2.009,6.939c0,11.056-17.559,27.18-22.202,31.25 c-0.639,0.56-1.59,0.56-2.229,0c-0.957-0.839-2.463-2.19-4.25-3.903c3.47,3.628,6.663,6.515,8.283,7.936 c0.639,0.56,1.59,0.56,2.229,0c4.642-4.07,22.202-20.194,22.202-31.25C222.624,154.174,220.214,150.121,216.583,147.819z"></path><path fill="#b7022d" d="M200.115,164.131l2.523-2.792l12.692,13.134c0.505-0.654,0.998-1.315,1.472-1.98l-12.528-12.965 l4.118-4.557c0.451-0.499,0.412-1.269-0.087-1.719c-0.498-0.451-1.269-0.412-1.719,0.087l-8.277,9.16 c-0.637,0.705-1.512,1.113-2.461,1.147c-0.947,0.031-1.851-0.309-2.538-0.967c-1.351-1.294-1.443-3.41-0.214-4.811l6.189-6.961 c-0.497-0.649-1.054-1.25-1.662-1.794l-6.351,7.143c-2.096,2.389-1.941,5.982,0.354,8.181c1.113,1.067,2.558,1.646,4.09,1.646 c0.073,0,0.146-0.001,0.219-0.004c0.006,0,0.011-0.001,0.017-0.001c0.04,0.063,0.086,0.124,0.138,0.18l13.69,14.708 c0.547-0.587,1.097-1.189,1.645-1.806l-12.851-13.806C199.144,165.04,199.665,164.63,200.115,164.131z"></path><path fill="#b7022d" d="M205.876,184.97l-14.711-15.49c-0.463-0.488-1.234-0.508-1.721-0.044 c-0.487,0.463-0.507,1.233-0.044,1.721l14.724,15.503C204.679,186.134,205.266,185.569,205.876,184.97z"></path><g><circle cx="199.31" cy="135.405" r="7.405" fill="#e63950"></circle></g></g>
</svg>