<svg width="30" height="30" viewBox="0 0 30 30" fill="none" xmlns="http://www.w3.org/2000/svg">
<g clip-path="url(#clip0_215_97)">
<path d="M3.41766 0H19.9298C19.2066 0.888908 18.5654 1.75721 18.0003 2.59611H3.41766C3.12879 2.59611 2.86594 2.72514 2.67609 2.93164C2.47997 3.14745 2.36983 3.43956 2.36977 3.74409V26.256C2.36977 26.5684 2.4893 26.8549 2.67967 27.0634C2.87086 27.2729 3.13371 27.4039 3.41766 27.4039H26.5823C26.8645 27.4039 27.1264 27.2719 27.3181 27.0619C27.5098 26.852 27.6302 26.565 27.6302 26.256V11.1243C28.4282 10.7611 29.2183 10.3777 30 9.97435V26.256C30 27.2827 29.6126 28.2197 28.9938 28.8977C28.3749 29.5756 27.5196 30 26.5823 30H3.41766C2.48039 30 1.62328 29.5776 1.00395 28.8991C0.386484 28.2226 0 27.2862 0 26.256V3.74409C0 2.71628 0.384668 1.7818 1.00266 1.10382L1.00758 1.09843C1.62645 0.42141 2.47951 0 3.41766 0Z" fill="#333333"/>
<path d="M7.82635 22.2173C8.93693 19.8262 10.7201 17.1031 12.8597 14.4511C10.8754 12.3264 8.83076 10.3548 6.93391 8.70944C6.65312 8.46661 6.60519 8.01869 6.82686 7.71109C6.92274 7.57741 7.05954 7.48628 7.21199 7.45452C8.73185 7.12535 9.93373 7.28184 11.0062 7.79646C12.0527 8.29926 12.9394 9.13033 13.8681 10.1797C14.2684 10.6325 14.7171 11.1608 15.194 11.7417C15.5503 11.3542 15.9115 10.9723 16.2777 10.5962C19.6272 7.15622 23.3758 4.22118 26.69 2.85733C27.0258 2.719 27.4011 2.90445 27.5274 3.27239C27.6237 3.55303 27.5479 3.85812 27.3581 4.04896C25.9802 5.6595 24.3954 7.35541 22.7417 9.12494C21.0338 10.9528 19.2515 12.8606 17.5911 14.7812C17.9813 15.2939 18.3677 15.8102 18.75 16.3299C20.2793 18.41 21.6755 20.4586 22.422 21.818C22.606 22.155 22.5057 22.5926 22.1981 22.7942C22.0665 22.8807 21.9111 22.9131 21.7597 22.8855L19.7155 22.6014C19.6295 22.5896 19.5465 22.5589 19.4715 22.5113C19.3965 22.4637 19.331 22.4001 19.2788 22.3243C18.1446 20.6769 16.8406 18.9997 15.4524 17.3621C13.9572 19.2601 12.6684 21.141 11.7769 22.9399C11.656 23.1837 11.4231 23.3186 11.1858 23.3108L8.39553 23.2509C8.03728 23.2451 7.75158 22.9213 7.75697 22.5289C7.7585 22.4206 7.78221 22.3142 7.82635 22.2173Z" fill="#01A601"/>
</g>
<defs>
<clipPath id="clip0_215_97">
<rect width="30" height="30" fill="white"/>
</clipPath>
</defs>
</svg>
