<svg width="30" height="30" viewBox="0 0 30 30" fill="none" xmlns="http://www.w3.org/2000/svg">
<g clip-path="url(#clip0_215_101)">
<path d="M22.2321 16.7651H13.49C12.8639 16.7481 12.2713 16.5549 11.8367 16.2259C11.4021 15.897 11.1592 15.458 11.1592 15.0012C11.1592 14.5444 11.4021 14.1054 11.8367 13.7765C12.2713 13.4476 12.8639 13.2543 13.49 13.2373H22.2321L19.3929 10.9253C18.9691 10.5782 18.7495 10.1236 18.7815 9.65954C18.8134 9.19547 19.0943 8.75917 19.5636 8.44481C19.7948 8.29051 20.0658 8.17122 20.3607 8.09388C20.6557 8.01653 20.9687 7.98267 21.2818 7.99426C21.5948 8.00584 21.9016 8.06264 22.1843 8.16136C22.467 8.26007 22.72 8.39874 22.9286 8.56932L29.3839 13.8232C29.7828 14.1509 30.0015 14.5745 29.9977 15.0126C29.994 15.4507 29.7683 15.8723 29.3638 16.1963L22.9286 21.4307C22.7205 21.6018 22.4677 21.741 22.1849 21.8401C21.9022 21.9392 21.5952 21.9962 21.2819 22.0078C20.9686 22.0194 20.6553 21.9853 20.3603 21.9076C20.0652 21.8299 19.7944 21.7101 19.5636 21.5552C19.0943 21.2408 18.8134 20.8045 18.7815 20.3404C18.7495 19.8764 18.9691 19.4217 19.3929 19.0747L22.2321 16.7651ZM13.4297 0.034167C14.0588 -0.0574545 14.7121 0.0369162 15.2459 0.296519C15.7796 0.556121 16.15 0.95969 16.2757 1.41844C16.4013 1.8772 16.2719 2.35356 15.9159 2.74274C15.5598 3.13191 15.0064 3.40202 14.3772 3.49364L13.2422 3.6621C7.77455 4.45311 4.83817 4.90477 4.83817 10.4224V20.0806C4.83817 25.2075 7.9654 25.6372 13.1417 26.3428L14.3571 26.5088C14.6687 26.5522 14.9654 26.64 15.2304 26.767C15.4954 26.8941 15.7235 27.058 15.9017 27.2493C16.0798 27.4407 16.2045 27.6557 16.2687 27.8822C16.3329 28.1087 16.3352 28.3422 16.2757 28.5693C16.2161 28.7965 16.0957 29.0128 15.9215 29.2061C15.7472 29.3993 15.5225 29.5656 15.2601 29.6955C14.9977 29.8254 14.7027 29.9164 14.3921 29.9632C14.0815 30.01 13.7613 30.0117 13.4498 29.9683L12.2545 29.8022C4.61384 28.7622 0 28.1323 0 20.0806V10.4175C0 2.01171 4.29911 1.35741 12.3013 0.200183L13.4297 0.034167Z" fill="white"/>
</g>
<defs>
<clipPath id="clip0_215_101">
<rect width="30" height="30" fill="white"/>
</clipPath>
</defs>
</svg>
