<svg width="30" height="30" viewBox="0 0 30 30" fill="none" xmlns="http://www.w3.org/2000/svg">
<g clip-path="url(#clip0_215_78)">
<path d="M25.4959 6.69305H25.5618C25.7522 6.69305 25.9207 6.80654 26.033 6.97993C28.8187 10.6811 30.2811 18.717 29.9563 24.0953C29.866 25.5865 29.639 26.898 29.2654 27.8879C28.8406 29.0165 28.2278 29.7574 27.4075 29.9528C26.3626 30.2019 25.0564 29.4894 23.4866 27.4244C23.284 27.1596 23.074 26.8917 22.8592 26.6174C22.1268 25.6874 21.3553 24.7069 20.7034 23.5247H9.29717C8.64287 24.7164 7.87139 25.6968 7.13652 26.6268C6.92412 26.898 6.71416 27.1628 6.51397 27.4244C4.94414 29.4894 3.63799 30.2019 2.59307 29.9528C1.77275 29.7574 1.15752 29.0165 0.735157 27.8879C0.361622 26.8948 0.134571 25.5865 0.0442392 24.0953C-0.280468 18.6918 1.19658 10.6086 4.0042 6.92949C4.12383 6.77186 4.28008 6.69305 4.43877 6.69305V6.6899H4.50713C4.85137 6.07829 5.27861 5.58649 5.75957 5.21449C6.48955 4.65017 7.33916 4.36959 8.18389 4.36959C9.03106 4.36959 9.88066 4.65017 10.6082 5.21449C11.0867 5.58334 11.514 6.07514 11.8533 6.68674H13.7845C13.6355 1.98309 14.6487 0.797715 16.1453 0.665307C16.6873 0.618018 17.261 0.740969 17.8616 0.870225C18.9969 1.11297 20.2518 1.38094 21.1429 0.23025C21.3821 -0.0787032 21.7679 -0.0787032 22.0071 0.23025C22.2464 0.539204 22.2464 1.03731 22.0071 1.34627C20.6741 3.07073 19.0945 2.7334 17.6663 2.4276C17.1365 2.31411 16.6336 2.20692 16.2259 2.23845C15.4178 2.3078 14.8807 3.17792 15.0076 6.6899H18.1497C18.4915 6.07829 18.9212 5.58334 19.3997 5.21449C20.1297 4.65017 20.9793 4.36959 21.8216 4.36959C22.6639 4.36959 23.5135 4.65333 24.2435 5.21449C24.7244 5.58649 25.1541 6.07829 25.4959 6.69305Z" fill="#262626"/>
<path d="M22.8032 9.16478C23.1987 9.6755 23.3965 10.3407 23.3965 11.009C23.3965 11.6742 23.1987 12.3394 22.8032 12.8502L22.8008 12.8533C22.4053 13.364 21.8901 13.6194 21.375 13.6194C20.8599 13.6194 20.3447 13.364 19.9492 12.8533L19.9468 12.8502C19.5513 12.3394 19.3535 11.6742 19.3535 11.009C19.3535 10.3407 19.5513 9.6755 19.9468 9.16478C20.3398 8.65721 20.8574 8.40186 21.375 8.40186C21.8901 8.40186 22.4053 8.65721 22.8008 9.16478H22.8032Z" fill="black"/>
<path d="M22.2834 9.83635C22.7864 10.4858 22.7864 11.5324 22.2834 12.1819C21.7805 12.8313 20.97 12.8313 20.467 12.1819C19.9641 11.5324 19.9641 10.4858 20.467 9.83635C20.9675 9.19322 21.7805 9.19322 22.2834 9.83635Z" fill="#FFD54F"/>
<path d="M19.7192 12.6233C19.7363 12.6453 19.751 12.6674 19.7656 12.6895C20.1294 13.1907 20.3125 13.8307 20.3125 14.4675C20.3125 15.1327 20.1147 15.7979 19.7192 16.3086L19.7168 16.3118L19.7192 16.315C19.3237 16.8257 18.8086 17.081 18.291 17.081C17.7734 17.081 17.2583 16.8257 16.8628 16.315C16.4673 15.8042 16.2695 15.139 16.2695 14.4707C16.2695 13.8023 16.4673 13.1371 16.8628 12.6264L16.8652 12.6233C16.8823 12.6012 16.8994 12.5823 16.9165 12.5602C17.3047 12.0936 17.7979 11.8604 18.291 11.8604C18.8062 11.8604 19.3213 12.1157 19.7168 12.6233H19.7192Z" fill="black"/>
<path d="M19.1995 13.2948C19.7024 13.9442 19.7024 14.9909 19.1995 15.6403C18.6965 16.2897 17.886 16.2897 17.3831 15.6403C16.8801 14.9909 16.8801 13.9442 17.3831 13.2948C17.886 12.6485 18.699 12.6485 19.1995 13.2948Z" fill="#2196F3"/>
<path d="M25.8838 12.623C26.2793 13.1337 26.4771 13.7989 26.4771 14.4673C26.4771 15.1356 26.2793 15.8008 25.8838 16.3115C25.4883 16.8223 24.9731 17.0776 24.4556 17.0776C23.9404 17.0776 23.4253 16.8223 23.0298 16.3115L23.0273 16.3084L23.0249 16.3115C22.6294 15.8008 22.4316 15.1356 22.4316 14.4673C22.4316 13.7989 22.6294 13.1337 23.0249 12.623C23.4204 12.1123 23.9355 11.8569 24.4531 11.8569C24.9707 11.8569 25.4883 12.1154 25.8838 12.623Z" fill="black"/>
<path d="M25.3645 13.2948C25.8674 13.9442 25.8674 14.9909 25.3645 15.6403C24.8616 16.2897 24.051 16.2897 23.5481 15.6403C23.0452 14.9909 23.0452 13.9442 23.5481 13.2948C24.051 12.6485 24.8616 12.6485 25.3645 13.2948Z" fill="#F44336"/>
<path d="M22.8032 16.3965C23.1987 16.9072 23.3965 17.5724 23.3965 18.2408C23.3965 18.906 23.1987 19.5711 22.8032 20.0819L22.8008 20.085L22.8032 20.0882C22.4077 20.5989 21.8926 20.8542 21.375 20.8542C20.8574 20.8542 20.3423 20.5989 19.9468 20.0882C19.9297 20.0661 19.915 20.044 19.9004 20.022C19.5366 19.5207 19.3535 18.8807 19.3535 18.2439C19.3535 17.5756 19.5513 16.9104 19.9468 16.3996C19.9639 16.3776 19.9785 16.3587 19.998 16.3397C20.3862 15.87 20.8794 15.6367 21.375 15.6367C21.8901 15.6367 22.4053 15.8921 22.8008 16.3996H22.8032V16.3965Z" fill="black"/>
<path d="M22.2834 17.0683C22.7864 17.7177 22.7864 18.7644 22.2834 19.4138C21.7805 20.0632 20.97 20.0632 20.467 19.4138C19.9641 18.7644 19.9641 17.7177 20.467 17.0683C20.9675 16.4252 21.7805 16.4252 22.2834 17.0683Z" fill="#4CAF50"/>
<path fill-rule="evenodd" clip-rule="evenodd" d="M8.17676 9.87109C8.94336 9.87109 9.56836 10.6813 9.56836 11.6681V13.7677H11.1943C11.9609 13.7677 12.5859 14.5779 12.5859 15.5647C12.5859 16.5546 11.9585 17.3616 11.1943 17.3616H9.56836V19.4613C9.56836 20.4512 8.94092 21.2582 8.17676 21.2582C7.41016 21.2582 6.78516 20.448 6.78516 19.4613V17.3616H5.15918C4.39258 17.3616 3.76758 16.5514 3.76758 15.5647C3.76758 14.5747 4.39502 13.7677 5.15918 13.7677H6.78516V11.6681C6.78516 10.6813 7.41016 9.87109 8.17676 9.87109Z" fill="white"/>
<path fill-rule="evenodd" clip-rule="evenodd" d="M11.9536 15.6309L11.0674 16.7752V14.4865L11.9536 15.6309ZM8.2207 10.8105L9.10693 11.9549H7.33447L8.2207 10.8105ZM4.49023 15.6309L5.37647 16.7752V14.4865L4.49023 15.6309ZM8.2207 20.448L9.10693 19.3036H7.33447L8.2207 20.448Z" fill="#262626"/>
</g>
<defs>
<clipPath id="clip0_215_78">
<rect width="30" height="30" fill="white"/>
</clipPath>
</defs>
</svg>
