<svg width="30" height="30" viewBox="0 0 30 30" fill="none" xmlns="http://www.w3.org/2000/svg">
<g clip-path="url(#clip0_215_59)">
<path d="M0.527616 11.6116C0.56922 11.549 0.619336 11.4935 0.676268 11.4471L14.5322 0.152355C14.7769 -0.0456555 15.1226 -0.0558505 15.3793 0.152355L22.1689 5.66251V4.45571C21.8278 4.45508 21.5515 4.15613 21.5515 3.78753V2.19027C21.5515 1.82129 21.8283 1.52215 22.1697 1.52215H27.0667C27.4081 1.52215 27.685 1.82129 27.685 2.19027V3.78753C27.685 4.15632 27.4085 4.45527 27.0674 4.45571V9.63824L29.201 11.3697C29.2478 11.4031 29.2908 11.4425 29.329 11.4869C31.1195 13.5706 28.995 16.6067 26.8376 16.0171V29.16C26.8376 29.6239 26.4896 30 26.0604 30H3.80142C3.37223 30 3.02418 29.6239 3.02418 29.16V15.9667C0.887615 16.4397 -0.93547 13.6361 0.527616 11.6116Z" fill="black"/>
<path fill-rule="evenodd" clip-rule="evenodd" d="M15.0436 6.39258L26.0607 15.6368V29.16H22.8983L22.8985 29.15V19.8986C22.8985 19.5469 22.6426 19.2618 22.3269 19.2618H16.4595C16.1439 19.2618 15.8879 19.5469 15.8879 19.8986V29.15L15.8881 29.16H3.80176V15.6466L15.0436 6.39258ZM7.53541 19.2747H13.7839C14.1093 19.2747 14.3731 19.554 14.3731 19.8986V25.1816C14.3731 25.5262 14.1093 25.8055 13.7839 25.8055H7.53541C7.20998 25.8055 6.94613 25.5262 6.94613 25.1816V19.8986C6.94613 19.554 7.20998 19.2747 7.53541 19.2747Z" fill="#E2E9E3"/>
<path fill-rule="evenodd" clip-rule="evenodd" d="M15.0432 6.39258L15.8765 7.09267L5.28113 16.21L5.08549 29.16H3.7373L3.80141 15.6355L15.0432 6.39258Z" fill="#CCD2CD"/>
<path fill-rule="evenodd" clip-rule="evenodd" d="M26.4491 4.45557V9.13632L22.7871 6.16414V4.45557H26.4491Z" fill="#E2534B"/>
<path fill-rule="evenodd" clip-rule="evenodd" d="M22.1699 2.19043H27.0669V3.78775H22.1699V2.19043Z" fill="#E2E9E3"/>
<path fill-rule="evenodd" clip-rule="evenodd" d="M1.1014 12.0555C-0.080264 13.6434 1.62927 15.9764 3.36013 15.0414L15.049 5.43099L26.3711 14.9423C28.0658 16.304 30.2708 13.7014 28.8131 12.0059L14.9573 0.760742L1.1014 12.0555Z" fill="#E2534B"/>
<path fill-rule="evenodd" clip-rule="evenodd" d="M1.10091 12.0555C0.168447 13.5454 1.15593 14.0692 2.88684 13.1342L14.9988 3.30398L16.335 1.87953L14.9568 0.760742L1.10091 12.0555Z" fill="#CC4B44"/>
<path fill-rule="evenodd" clip-rule="evenodd" d="M16.459 19.8989H22.3264V29.1503H16.459V19.8989ZM21.3911 23.8808L21.6463 24.0206C21.6688 24.0329 21.6877 24.0517 21.7009 24.0749C21.714 24.098 21.7211 24.1247 21.7211 24.1519L21.7215 25.17C21.7214 25.2044 21.7103 25.2377 21.69 25.2641C21.6697 25.2906 21.6415 25.3086 21.6102 25.315L21.3574 25.3941C21.3403 25.3994 21.3224 25.4011 21.3047 25.3989C21.2869 25.3968 21.2698 25.3909 21.2542 25.3816C21.2386 25.3723 21.2248 25.3597 21.2137 25.3447C21.2026 25.3296 21.1943 25.3123 21.1894 25.2938L21.1838 25.2531L21.1833 24.0064C21.1833 23.9802 21.1898 23.9545 21.2021 23.9319C21.2144 23.9094 21.232 23.8907 21.2532 23.8779C21.2743 23.8652 21.2982 23.8587 21.3225 23.8592C21.3467 23.8597 21.3704 23.8671 21.3911 23.8808Z" fill="#E2534B"/>
<path fill-rule="evenodd" clip-rule="evenodd" d="M16.459 19.8989H22.3264V20.0734C15.3966 20.0578 16.9395 22.8526 16.9395 29.1503H16.459V19.8989Z" fill="#CC4B44"/>
<path fill-rule="evenodd" clip-rule="evenodd" d="M7.53516 19.8989H10.3536V22.2859H7.54922L7.53516 22.2864V19.8989ZM10.8246 19.8989H13.7837V22.2959C13.7623 22.2892 13.7402 22.2859 13.718 22.2859H10.8246V19.8989ZM13.7837 22.7849V25.1819H10.8246V22.7949H13.718C13.7408 22.7949 13.7629 22.7914 13.7837 22.7849ZM10.3536 25.1819H7.53516V22.7944L7.54922 22.7949H10.3536V25.1819Z" fill="white"/>
<path fill-rule="evenodd" clip-rule="evenodd" d="M14.8557 11.5547C15.6863 11.5547 16.3598 12.2823 16.3598 13.1801C16.3598 14.0778 15.6863 14.8056 14.8557 14.8056C14.0248 14.8056 13.3516 14.0778 13.3516 13.1801C13.3516 12.2823 14.0248 11.5547 14.8557 11.5547Z" fill="black"/>
</g>
<defs>
<clipPath id="clip0_215_59">
<rect width="30" height="30" fill="white"/>
</clipPath>
</defs>
</svg>
