<svg width="30" height="30" viewBox="0 0 30 30" fill="none" xmlns="http://www.w3.org/2000/svg">
<g clip-path="url(#clip0_215_91)">
<path d="M19.3313 26.621C19.2357 27.0947 19.0678 27.5292 18.8249 27.9272C18.5743 28.3349 18.2462 28.7035 17.8431 29.0258C17.4374 29.3481 16.9982 29.5922 16.5202 29.7558C16.0422 29.9194 15.5358 29.9999 15.001 29.9999C14.4635 29.9999 13.9571 29.9169 13.4817 29.7558C13.0063 29.5922 12.5645 29.3505 12.1614 29.0258C11.7558 28.7011 11.4302 28.3349 11.1796 27.9272C10.929 27.5195 10.7584 27.0702 10.6654 26.5771C10.6189 26.3378 10.7894 26.1083 11.0426 26.0644C11.0504 26.0644 11.1253 26.0571 11.1253 26.0571H18.8818C19.1401 26.0571 19.352 26.2548 19.352 26.5014C19.3494 26.5429 19.3417 26.582 19.3313 26.621ZM5.22144 0.0609589C5.69426 -0.117264 6.2291 0.102463 6.41772 0.54924C6.60633 0.996018 6.37379 1.50139 5.90097 1.67961C4.8778 2.06535 4.01999 2.60002 3.3353 3.29338C2.65318 3.98674 2.13902 4.84612 1.80313 5.87883C1.65327 6.33781 1.13652 6.5966 0.650772 6.455C0.165026 6.3134 -0.108852 5.82512 0.0410057 5.36613C0.462158 4.07219 1.11326 2.98821 1.98399 2.10442C2.85472 1.22307 3.93731 0.544357 5.22144 0.0609589ZM24.0984 1.67961C23.6255 1.50139 23.393 0.996018 23.5816 0.54924C23.7702 0.102463 24.3051 -0.117264 24.7779 0.0609589C26.062 0.544357 27.1446 1.22307 28.0153 2.10686C28.8861 2.99309 29.5398 4.07707 29.9583 5.36858C30.1082 5.82756 29.8343 6.31584 29.3486 6.45744C28.8628 6.59905 28.3461 6.34026 28.1962 5.88127C27.8603 4.84612 27.3461 3.98674 26.664 3.29582C25.9793 2.60002 25.1215 2.06535 24.0984 1.67961ZM18.5795 2.91496C19.1065 3.11272 19.613 3.34953 20.0987 3.62541C20.1168 3.63762 20.1375 3.64738 20.1556 3.65959C20.6206 3.93059 21.0547 4.22844 21.4526 4.5507C22.3027 5.24162 23.0106 6.05217 23.5713 6.97014C23.8503 7.42912 24.0906 7.90764 24.2896 8.4008C24.4937 8.91106 24.6461 9.43108 24.7495 9.96574C24.8502 10.5029 24.9019 11.0522 24.9019 11.6161C24.9019 12.7294 24.9019 13.3324 24.9019 13.4057C24.9045 13.977 24.9071 14.5361 24.9122 15.0805V15.0854C24.9148 15.5785 24.9484 16.0741 25.013 16.5697C25.0776 17.0605 25.1706 17.5341 25.2921 17.9906C25.4135 18.4399 25.5789 18.8744 25.783 19.2895C25.9948 19.7167 26.2532 20.1366 26.5555 20.5444H26.5581C26.8578 20.9447 27.2325 21.3427 27.682 21.7333C28.1471 22.1362 28.6845 22.5341 29.2995 22.9198C29.6509 23.142 29.7465 23.5937 29.5088 23.9257C29.3615 24.1332 29.1186 24.248 28.8706 24.248V24.2504H21.9332H15.001H8.06357H1.12877C0.702447 24.2504 0.358808 23.9257 0.358808 23.5229C0.358808 23.2592 0.508666 23.0273 0.730869 22.9003C1.35355 22.5024 1.88839 22.1069 2.33538 21.7162C2.77979 21.328 3.15185 20.9301 3.45156 20.5199C3.45932 20.5077 3.46965 20.4955 3.47999 20.4858C3.76937 20.0854 4.01741 19.6777 4.22152 19.2626C4.43081 18.8403 4.59875 18.4057 4.72277 17.9589C4.72536 17.9491 4.72794 17.9394 4.73052 17.9321C4.84938 17.4975 4.93981 17.0385 5.00182 16.5575C5.06383 16.0741 5.09742 15.5737 5.09742 15.0585V11.6161C5.09742 11.0619 5.14909 10.5126 5.25503 9.9633C5.36096 9.41643 5.5134 8.89153 5.71752 8.39104C5.91905 7.89055 6.16193 7.40959 6.44355 6.95061C7.01198 6.02287 7.71735 5.21965 8.58032 4.52385C9.00147 4.18449 9.45622 3.87444 9.94455 3.59856C10.438 3.32024 10.9496 3.08586 11.4767 2.89543C11.8436 2.7636 12.2234 2.65373 12.611 2.5634C12.7428 2.12639 12.9701 1.77238 13.2931 1.50139C13.7375 1.12785 14.3214 0.942307 15.0475 0.949631C15.7657 0.954514 16.3471 1.1425 16.7863 1.51604C18.3392 2.82219 16.4065 2.10442 18.5795 2.91496Z" fill="url(#paint0_linear_215_91)"/>
</g>
<defs>
<linearGradient id="paint0_linear_215_91" x1="14.9997" y1="-0.000976563" x2="14.9997" y2="29.9999" gradientUnits="userSpaceOnUse">
<stop stop-color="#C9F613"/>
<stop offset="1" stop-color="#B2DE02"/>
</linearGradient>
<clipPath id="clip0_215_91">
<rect width="30" height="30" fill="white"/>
</clipPath>
</defs>
</svg>
