<svg width="30" height="30" viewBox="0 0 30 30" fill="none" xmlns="http://www.w3.org/2000/svg">
<g clip-path="url(#clip0_215_94)">
<path fill-rule="evenodd" clip-rule="evenodd" d="M0 30C0.36021 25.4736 -0.552823 25.6567 3.33194 24.2383C5.24016 23.5266 7.06902 22.6267 8.79013 21.5527L12.1096 30.0073L0 30ZM10.311 17.7612C9.92701 17.1611 9.60044 16.5277 9.33545 15.8691C7.23672 14.7168 6.90153 9.59229 8.19478 9.98047C8.19478 9.7876 8.15976 9.24805 8.15976 8.87695C8.15976 0.559083 21.8527 0.554199 21.8527 8.87695C21.8527 9.25781 21.8127 9.7876 21.8177 9.98047C23.111 9.58496 22.7633 14.7095 20.6771 15.8691C20.1443 17.3096 19.1937 18.2764 19.2712 18.9087C19.2612 21.0718 16.8273 21.8579 15.0088 21.8774C14.8437 21.8774 14.6761 21.8774 14.5085 21.853C14.9055 21.75 15.286 21.5939 15.6391 21.3892C16.4171 20.9253 16.9424 20.2393 16.9424 19.4165C16.9424 18.5937 16.4196 17.9028 15.6416 17.4414C14.9285 17.0329 14.1171 16.8164 13.2903 16.814C12.6479 16.8023 12.0096 16.9143 11.4117 17.1436C11.0407 17.2905 10.7012 17.5042 10.4111 17.7734H10.3185L10.311 17.7612ZM21.3725 21.1597C22.936 22.179 24.6265 22.9995 26.4029 23.6011C30.03 24.7778 30.03 24.9438 29.995 29.9902H17.933L21.3725 21.1597ZM15.9168 25.498H16.3821C16.5811 25.498 16.772 25.4209 16.9127 25.2835C17.0534 25.1462 17.1325 24.9599 17.1325 24.7656V23.5449C17.1325 23.3507 17.0534 23.1644 16.9127 23.027C16.772 22.8897 16.5811 22.8125 16.3821 22.8125H13.6305C13.4324 22.8156 13.2434 22.8938 13.1034 23.0305C12.9633 23.1672 12.8832 23.3517 12.88 23.5449V24.7656C12.8839 24.9587 12.9642 25.1428 13.1041 25.2794C13.244 25.4159 13.4326 25.4943 13.6305 25.498H14.1032L13.1827 30H16.7873L15.9168 25.498Z" fill="#2E2E2E"/>
<path fill-rule="evenodd" clip-rule="evenodd" d="M24.8818 7.71728H24.7892C23.9312 4.16992 21.7249 1.70898 19.0959 0.690911C17.5538 0.122359 15.9005 -0.101232 14.2581 0.0366145C12.6436 0.159615 11.0729 0.608548 9.6454 1.35497C8.45486 2.0017 7.43958 2.91632 6.68389 4.02286C5.9282 5.1294 5.45389 6.39593 5.30037 7.71728H5.12777C4.30228 7.71728 3.4668 8.3789 3.4668 9.18212V14.4726C3.4668 15.2783 4.30228 15.9375 5.12777 15.9375H5.61555C6.14836 18.0493 8.30712 19.9829 10.5059 19.9829H10.9387C11.3164 20.5249 12.0493 20.9082 13.27 20.9082C14.4907 20.9082 15.7915 20.2368 15.7915 19.4116C15.7915 18.5864 14.5082 17.9175 13.28 17.9175C12.0518 17.9175 11.2789 18.3154 10.9261 18.8769H10.5059C8.6198 18.8769 6.75371 16.9238 6.62114 15.1611V7.81249C6.76248 6.70576 7.16907 5.64712 7.80795 4.72242C8.44682 3.79772 9.3 3.03298 10.2983 2.49023C11.559 1.83597 12.9445 1.44283 14.3682 1.33544C15.8054 1.21473 17.2521 1.40823 18.6031 1.90185C20.7819 2.74169 22.623 4.83154 23.4134 7.71728H23.3809V15.9375H24.8818C25.7098 15.9375 26.5428 15.2783 26.5428 14.4726V9.18456C26.5428 8.37646 25.7073 7.71972 24.8818 7.71972V7.71728Z" fill="#2B78C2"/>
</g>
<defs>
<clipPath id="clip0_215_94">
<rect width="30" height="30" fill="white"/>
</clipPath>
</defs>
</svg>
